<svg width="195" height="40" viewBox="0 0 195 40" fill="none" xmlns="http://www.w3.org/2000/svg">
<path fill-rule="evenodd" clip-rule="evenodd" d="M10.6683 25.9102C9.16328 25.2271 6.8044 23.9036 5.5449 23.6314C6.03589 26.5346 7.42347 30.0463 8.40011 32.8855C10.0065 29.2831 11.6129 25.6861 13.2193 22.0837C13.4221 21.6354 13.6195 21.1818 13.8223 20.7335C14.6442 18.8869 18.919 19.538 17.1846 23.7381C14.9591 29.1283 10.8657 38.6439 10.1506 39.0922C8.72566 39.9888 6.87911 39.8927 5.63029 38.7667C4.40282 37.6619 4.22671 36.2423 3.67701 34.2997C2.77509 31.1296 1.78243 27.7674 0.864497 24.576C0.42154 23.039 -0.416344 21.1444 0.245424 19.5967C0.458897 19.0951 0.784445 18.6788 1.19004 18.3693C2.59897 17.2966 3.73572 17.7395 5.13397 18.3799L12.4294 21.8009L10.6789 25.9049L10.6683 25.9102ZM18.4387 29.662L29.518 35.0362C32.005 36.2477 38.5533 40.0635 41.1843 39.6045C47.2363 38.5479 44.8454 32.7947 43.1696 29.2831L32.4212 7.04983C31.039 4.1626 29.4326 -0.170912 25.6595 0.00520364C22.5161 0.154635 21.3419 1.71299 20.2639 4.43478C19.2659 6.94843 17.6275 10.4601 16.4 13.9664C15.1886 17.43 19.0951 19.1858 20.8243 15.2579C21.945 12.7176 21.8276 12.9737 22.879 10.4067C24.7362 5.87573 25.3873 3.43679 27.5861 7.93041C28.963 10.6575 34.8281 22.4786 38.1423 29.5926C40.0956 33.7821 41.4085 35.4098 35.2177 32.5332C33.4299 31.7007 31.9302 30.9802 30.2118 30.1423L20.1465 25.4246C19.6021 26.2198 18.5134 28.6961 18.4387 29.662Z" fill="url(#paint0_linear_656_84412)"/>
<path fill-rule="evenodd" clip-rule="evenodd" d="M17.9424 24.3354L31.1564 30.6009L28.2585 34.4167L16.0852 28.5249L17.9424 24.3354Z" fill="url(#paint1_linear_656_84412)"/>
<path d="M47.882 12.5518H52.9681L56.9173 27.2014L60.7812 12.5518H64.8105L68.7011 27.2014L72.6183 12.5518H77.731L71.615 33.6216H66.3635L62.8038 20.1674L59.2175 33.6216H53.9927L47.8767 12.5518H47.882Z" fill="url(#paint2_linear_656_84412)"/>
<path d="M83.735 18.0009C85.0158 18.0009 86.1525 18.2198 87.1559 18.652C88.1592 19.0897 88.9971 19.6714 89.6695 20.4025C90.3473 21.1337 90.8596 21.9876 91.2119 22.9589C91.5641 23.9302 91.7402 24.9548 91.7402 26.0275C91.7402 27.1003 91.5641 28.1303 91.2119 29.1122C90.8596 30.0942 90.3473 30.9588 89.6695 31.6953C88.9917 32.4371 88.1539 33.0241 87.1559 33.4618C86.1579 33.8994 85.0158 34.1129 83.735 34.1129C82.4541 34.1129 81.3014 33.8887 80.3301 33.4458C79.3587 33.0028 78.5422 32.4104 77.8858 31.6686C77.2293 30.9268 76.733 30.0675 76.3968 29.0856C76.0659 28.1036 75.8951 27.0842 75.8951 26.0275C75.8951 24.9709 76.0606 23.9569 76.3968 22.9855C76.7277 22.0142 77.224 21.155 77.8858 20.4132C78.5422 19.6714 79.3587 19.0843 80.3301 18.6467C81.3014 18.2091 82.4381 17.9956 83.735 17.9956V18.0009ZM83.7883 30.5105C84.4341 30.5105 84.9891 30.3717 85.4427 30.0942C85.8964 29.8167 86.2646 29.4591 86.5421 29.0269C86.8196 28.5892 87.0225 28.1089 87.1559 27.5806C87.284 27.0522 87.348 26.5399 87.348 26.0382C87.348 25.5366 87.2893 25.0616 87.1665 24.5492C87.0438 24.0422 86.8463 23.5726 86.5688 23.1457C86.2913 22.7187 85.9231 22.3665 85.4694 22.089C85.0158 21.8114 84.4554 21.6727 83.7883 21.6727C83.1212 21.6727 82.5609 21.8114 82.1072 22.089C81.6536 22.3665 81.2853 22.7187 81.0078 23.1457C80.7303 23.5726 80.5329 24.0422 80.4101 24.5492C80.2874 25.0616 80.2287 25.5526 80.2287 26.0382C80.2287 26.5239 80.2927 27.0522 80.4261 27.5806C80.5542 28.1089 80.757 28.5892 81.0399 29.0269C81.3227 29.4645 81.6856 29.8167 82.1392 30.0942C82.5929 30.3717 83.1426 30.5105 83.7937 30.5105H83.7883Z" fill="url(#paint3_linear_656_84412)"/>
<path d="M92.8983 33.6215V18.4436H97.0931V20.9999C97.5734 20.0926 98.2085 19.3562 98.9983 18.7905C99.7882 18.2247 100.765 17.9419 101.934 17.9419H102.296C102.425 17.9419 102.558 17.9526 102.686 17.9686C102.814 17.9686 102.948 17.9793 103.076 17.9953V22.2754C102.836 22.2594 102.611 22.2274 102.409 22.19C102.206 22.174 102.008 22.158 101.811 22.1473C101.613 22.1367 101.443 22.1313 101.299 22.1313C100.391 22.1313 99.6601 22.222 99.1051 22.4088C98.55 22.5956 98.1231 22.8358 97.8242 23.1293C97.5254 23.4228 97.3332 23.743 97.2425 24.0899C97.1518 24.4315 97.1037 24.773 97.1037 25.1039V33.6109H92.909L92.8983 33.6215Z" fill="url(#paint4_linear_656_84412)"/>
<path d="M103.844 33.6216V12.5518H108.039V23.503L112.57 18.4436H118.184L112.18 24.7251L118.376 33.6216H113.29L109.234 27.8151L108.039 29.0373V33.6216H103.844Z" fill="url(#paint5_linear_656_84412)"/>
<path d="M127.214 20.7491C127.657 20.8612 128.164 20.9839 128.73 21.1227C129.296 21.2615 129.872 21.4322 130.47 21.635C131.062 21.8378 131.638 22.0833 132.193 22.3715C132.748 22.6597 133.245 23.0226 133.682 23.4709C134.12 23.9192 134.472 24.4476 134.739 25.0666C135.006 25.6857 135.139 26.4169 135.139 27.2494C135.139 28.4182 134.894 29.4268 134.403 30.2807C133.912 31.1346 133.271 31.8444 132.487 32.4048C131.697 32.9705 130.801 33.3868 129.792 33.6536C128.783 33.9204 127.759 34.0539 126.723 34.0539C124.204 34.0539 122.24 33.4615 120.831 32.2767C119.422 31.0919 118.627 29.4588 118.44 27.3828H122.667C122.795 28.3114 123.206 28.9625 123.889 29.3414C124.572 29.7204 125.602 29.9125 126.974 29.9125C128.047 29.9125 128.879 29.7577 129.461 29.4375C130.043 29.1226 130.336 28.6423 130.336 27.9912C130.336 27.623 130.256 27.3081 130.101 27.0573C129.941 26.8064 129.706 26.5876 129.392 26.4062C129.077 26.2194 128.676 26.0539 128.196 25.9045C127.716 25.7551 127.15 25.5896 126.499 25.4028C125.666 25.1627 124.786 24.9225 123.857 24.6824C122.929 24.4422 122.075 24.1007 121.285 23.6524C120.495 23.2094 119.849 22.617 119.337 21.8752C118.825 21.1334 118.574 20.1407 118.574 18.9026C118.574 17.7338 118.809 16.7251 119.284 15.8713C119.753 15.0174 120.378 14.3129 121.146 13.7579C121.915 13.2028 122.79 12.7866 123.772 12.509C124.754 12.2315 125.763 12.0928 126.803 12.0928C128.175 12.0928 129.338 12.2742 130.294 12.6371C131.249 13 132.028 13.4857 132.642 14.0941C133.255 14.7078 133.709 15.4123 134.003 16.2181C134.296 17.024 134.472 17.8726 134.531 18.7638H130.336C130.245 17.8192 129.899 17.1628 129.306 16.7892C128.714 16.4209 127.823 16.2342 126.638 16.2342C125.656 16.2342 124.871 16.3996 124.29 16.7358C123.708 17.072 123.414 17.5417 123.414 18.1554C123.414 18.4863 123.478 18.7745 123.612 19.0147C123.74 19.2548 123.948 19.4683 124.236 19.6551C124.524 19.8419 124.914 20.018 125.405 20.1834C125.896 20.3489 126.504 20.5357 127.225 20.7385L127.214 20.7491Z" fill="url(#paint6_linear_656_84412)"/>
<path d="M139.436 18.4438L142.632 28.2263L145.829 18.4438H150.083L144.522 35.4844C144.319 36.1141 144.116 36.6798 143.924 37.1815C143.732 37.6832 143.476 38.1048 143.161 38.4463C142.846 38.7879 142.419 39.0547 141.88 39.2362C141.341 39.423 140.631 39.5137 139.74 39.5137H136.628V36.2902H138.325C139.009 36.2902 139.5 36.1355 139.798 35.8313C140.097 35.5271 140.327 35.1588 140.492 34.7319L135.155 18.4438H139.436Z" fill="url(#paint7_linear_656_84412)"/>
<path d="M150.712 18.4436H154.907V19.8898C155.446 19.2975 156.097 18.8225 156.866 18.4702C157.634 18.118 158.547 17.9419 159.603 17.9419C160.66 17.9419 161.487 18.1073 162.202 18.4436C162.918 18.7744 163.499 19.2281 163.953 19.7938C164.407 20.3595 164.737 21.0052 164.94 21.7417C165.143 22.4729 165.244 23.2307 165.244 24.0045V33.6215H161.05V25.1146C161.05 24.6716 161.002 24.2394 160.911 23.8231C160.82 23.4068 160.665 23.0332 160.452 22.713C160.239 22.3875 159.95 22.126 159.587 21.9232C159.225 21.7204 158.766 21.619 158.211 21.619C157.597 21.619 157.079 21.7311 156.652 21.9499C156.225 22.174 155.884 22.4515 155.622 22.7824C155.361 23.1133 155.179 23.4922 155.067 23.9085C154.955 24.3248 154.902 24.7304 154.902 25.1146V33.6215H150.707V18.4436H150.712Z" fill="url(#paint8_linear_656_84412)"/>
<path d="M173.97 30.452C174.861 30.452 175.614 30.1958 176.233 29.6888C176.852 29.1765 177.231 28.5254 177.359 27.7302H181.223C181.186 28.6748 180.988 29.534 180.625 30.3132C180.262 31.0924 179.766 31.7595 179.136 32.3145C178.507 32.8696 177.749 33.3018 176.873 33.606C175.993 33.9102 175.027 34.065 173.97 34.065C172.673 34.065 171.537 33.8355 170.565 33.3712C169.594 32.9069 168.788 32.2932 168.164 31.5247C167.534 30.7562 167.059 29.8756 166.744 28.8829C166.429 27.8903 166.274 26.8656 166.274 25.8143C166.274 24.7629 166.445 23.7596 166.787 22.815C167.128 21.8703 167.635 21.0378 168.302 20.312C168.97 19.5915 169.791 19.0151 170.763 18.5882C171.734 18.1612 172.849 17.9478 174.114 17.9478C175.075 17.9478 175.993 18.0918 176.852 18.38C177.717 18.6682 178.464 19.0738 179.104 19.6022C179.745 20.1305 180.252 20.7656 180.631 21.5074C181.009 22.2492 181.207 23.0658 181.228 23.9517H177.311C177.162 23.2686 176.841 22.7082 176.35 22.2706C175.859 21.833 175.214 21.6195 174.418 21.6195C173.751 21.6195 173.17 21.7529 172.684 22.0198C172.193 22.2866 171.787 22.6335 171.473 23.0498C171.158 23.466 170.923 23.941 170.763 24.4694C170.603 24.9977 170.528 25.5207 170.528 26.0384C170.528 26.5027 170.587 26.9937 170.709 27.5114C170.832 28.029 171.024 28.5094 171.291 28.9416C171.558 29.3793 171.916 29.7368 172.358 30.025C172.801 30.3132 173.34 30.4573 173.97 30.4573V30.452Z" fill="url(#paint9_linear_656_84412)"/>
<path d="M188.332 24.1433C188.833 24.2714 189.415 24.4315 190.082 24.6183C190.749 24.8051 191.384 25.0719 191.987 25.4241C192.59 25.7764 193.103 26.246 193.53 26.8277C193.957 27.4094 194.17 28.1673 194.17 29.0959C194.17 29.9498 193.989 30.6916 193.626 31.332C193.263 31.9724 192.793 32.4955 192.206 32.9011C191.624 33.3067 190.957 33.6162 190.221 33.819C189.479 34.0218 188.732 34.1232 187.969 34.1232C186.117 34.1232 184.671 33.6856 183.635 32.8157C182.595 31.9458 182.002 30.7396 181.858 29.2026H185.471C185.546 29.8324 185.786 30.2753 186.192 30.5208C186.597 30.7717 187.222 30.8944 188.054 30.8944C188.646 30.8944 189.137 30.7877 189.527 30.5742C189.917 30.3607 190.109 30.0672 190.109 29.699C190.109 29.1813 189.885 28.8024 189.442 28.5622C188.999 28.322 188.449 28.1086 187.803 27.9218C187.19 27.735 186.544 27.5482 185.855 27.3507C185.172 27.1533 184.537 26.8811 183.966 26.5289C183.39 26.1766 182.915 25.7177 182.536 25.152C182.157 24.5863 181.965 23.8498 181.965 22.9425C181.965 22.0886 182.136 21.3521 182.477 20.7331C182.819 20.114 183.272 19.591 183.838 19.1747C184.404 18.7584 185.049 18.4489 185.77 18.2461C186.49 18.0433 187.232 17.9419 187.995 17.9419C189.015 17.9419 189.874 18.07 190.578 18.3315C191.283 18.593 191.859 18.9452 192.313 19.4042C192.767 19.8578 193.103 20.3808 193.327 20.9732C193.551 21.5656 193.679 22.1954 193.716 22.8625H190.157C190.103 22.2701 189.89 21.8378 189.532 21.5709C189.175 21.3041 188.636 21.1653 187.931 21.1653C187.376 21.1653 186.917 21.2774 186.554 21.4962C186.192 21.7204 186.01 22.0086 186.01 22.3608C186.01 22.8251 186.234 23.188 186.677 23.4602C187.12 23.727 187.67 23.9565 188.316 24.1433H188.332Z" fill="url(#paint10_linear_656_84412)"/>
<defs>
<linearGradient id="paint0_linear_656_84412" x1="22.5384" y1="0" x2="22.5384" y2="39.6962" gradientUnits="userSpaceOnUse">
<stop stop-color="white"/>
<stop offset="1" stop-color="#0097FE"/>
</linearGradient>
<linearGradient id="paint1_linear_656_84412" x1="23.6208" y1="24.3354" x2="23.6208" y2="34.4167" gradientUnits="userSpaceOnUse">
<stop stop-color="white"/>
<stop offset="1" stop-color="#0097FE"/>
</linearGradient>
<linearGradient id="paint2_linear_656_84412" x1="47.8767" y1="23.0867" x2="77.731" y2="23.0867" gradientUnits="userSpaceOnUse">
<stop stop-color="white"/>
<stop offset="1" stop-color="#0097FE"/>
</linearGradient>
<linearGradient id="paint3_linear_656_84412" x1="75.8951" y1="26.0542" x2="91.7402" y2="26.0542" gradientUnits="userSpaceOnUse">
<stop stop-color="white"/>
<stop offset="1" stop-color="#0097FE"/>
</linearGradient>
<linearGradient id="paint4_linear_656_84412" x1="92.8983" y1="25.7817" x2="103.076" y2="25.7817" gradientUnits="userSpaceOnUse">
<stop stop-color="white"/>
<stop offset="1" stop-color="#0097FE"/>
</linearGradient>
<linearGradient id="paint5_linear_656_84412" x1="103.844" y1="23.0867" x2="118.376" y2="23.0867" gradientUnits="userSpaceOnUse">
<stop stop-color="white"/>
<stop offset="1" stop-color="#0097FE"/>
</linearGradient>
<linearGradient id="paint6_linear_656_84412" x1="118.44" y1="23.0733" x2="135.139" y2="23.0733" gradientUnits="userSpaceOnUse">
<stop stop-color="white"/>
<stop offset="1" stop-color="#0097FE"/>
</linearGradient>
<linearGradient id="paint7_linear_656_84412" x1="135.155" y1="28.9788" x2="150.083" y2="28.9788" gradientUnits="userSpaceOnUse">
<stop stop-color="white"/>
<stop offset="1" stop-color="#0097FE"/>
</linearGradient>
<linearGradient id="paint8_linear_656_84412" x1="150.707" y1="25.7817" x2="165.244" y2="25.7817" gradientUnits="userSpaceOnUse">
<stop stop-color="white"/>
<stop offset="1" stop-color="#0097FE"/>
</linearGradient>
<linearGradient id="paint9_linear_656_84412" x1="166.274" y1="26.0064" x2="181.228" y2="26.0064" gradientUnits="userSpaceOnUse">
<stop stop-color="white"/>
<stop offset="1" stop-color="#0097FE"/>
</linearGradient>
<linearGradient id="paint10_linear_656_84412" x1="181.858" y1="26.0325" x2="194.17" y2="26.0325" gradientUnits="userSpaceOnUse">
<stop stop-color="white"/>
<stop offset="1" stop-color="#0097FE"/>
</linearGradient>
</defs>
</svg>
